<?xml version="1.0" standalone="no"?>
<!DOCTYPE svg PUBLIC "-//W3C//DTD SVG 20010904//EN"
 "http://www.w3.org/TR/2001/REC-SVG-20010904/DTD/svg10.dtd">
<svg version="1.0" xmlns="http://www.w3.org/2000/svg"
 width="661.000000pt" height="661.000000pt" viewBox="0 0 661.000000 661.000000"
 preserveAspectRatio="xMidYMid meet">
<metadata>
Created by potrace 1.16, written by Peter Selinger 2001-2019
</metadata>
<g transform="translate(0.000000,661.000000) scale(0.100000,-0.100000)"
fill="#0f7c67" stroke="none">
<path d="M3080 6108 c-232 -32 -340 -49 -366 -58 -16 -5 -65 -19 -109 -30
-208 -51 -519 -186 -715 -310 -8 -5 -35 -21 -60 -36 -58 -35 -267 -194 -339
-258 -121 -107 -216 -206 -305 -316 -91 -113 -226 -303 -226 -319 0 -5 -7 -14
-15 -21 -8 -7 -24 -31 -35 -54 -12 -22 -29 -57 -40 -76 -16 -31 -78 -166 -131
-286 -9 -22 -25 -65 -34 -95 -9 -30 -23 -72 -30 -94 -45 -132 -89 -345 -115
-561 -17 -131 -8 -543 14 -669 27 -157 57 -299 67 -317 5 -10 9 -24 9 -33 0
-21 57 -199 85 -265 13 -30 34 -82 47 -115 12 -33 25 -62 29 -65 3 -3 27 -47
53 -99 56 -111 167 -293 230 -376 55 -73 156 -196 186 -225 19 -19 49 -51 66
-70 29 -32 76 -77 165 -155 247 -218 587 -416 909 -528 336 -117 554 -152 945
-151 385 2 553 29 915 150 128 43 520 228 520 245 0 4 9 10 19 14 38 12 215
136 301 212 8 8 33 27 55 44 195 147 595 642 595 735 0 26 -5 34 -27 43 -16 6
-42 20 -59 30 -17 10 -60 35 -95 54 -35 19 -144 81 -241 137 -104 60 -184 100
-192 97 -16 -6 -38 -36 -105 -140 -20 -32 -59 -85 -86 -118 -62 -74 -281 -296
-315 -318 -14 -9 -59 -41 -100 -72 -212 -157 -508 -288 -765 -339 -347 -69
-833 -44 -1070 55 -16 7 -52 20 -80 30 -259 90 -530 263 -745 476 -97 96 -212
233 -238 285 -11 22 -28 46 -36 53 -9 8 -16 18 -16 24 0 6 -6 18 -14 26 -44
51 -146 275 -204 446 -35 106 -76 290 -67 305 4 6 90 10 229 10 242 0 250 -2
259 -55 27 -172 184 -506 306 -649 107 -125 230 -245 316 -304 27 -19 57 -41
66 -48 49 -43 252 -139 389 -184 182 -59 277 -74 490 -73 185 0 278 11 420 50
30 8 72 19 93 24 21 5 45 13 55 19 9 5 53 25 97 45 91 41 256 137 275 160 7 8
18 15 26 15 7 0 19 8 26 18 7 9 31 30 53 47 60 44 164 154 230 242 32 43 72
95 87 116 46 60 37 91 -37 133 -33 19 -67 37 -75 41 -8 3 -32 17 -52 29 -20
13 -69 41 -110 62 -86 46 -133 72 -185 105 -21 13 -58 34 -81 46 -43 22 -45
22 -64 4 -11 -10 -37 -43 -58 -73 -60 -88 -188 -196 -305 -257 -136 -71 -275
-99 -445 -90 -146 8 -246 39 -389 119 -78 44 -249 200 -279 255 -94 175 -125
263 -142 408 -14 110 -11 151 17 270 24 99 25 100 80 210 70 138 152 231 283
319 120 81 213 117 368 141 162 26 330 0 487 -75 35 -17 66 -30 70 -30 4 0 24
-14 44 -30 136 -114 188 -165 223 -222 32 -53 47 -51 170 23 58 35 371 215
432 249 63 35 71 51 46 83 -11 14 -20 28 -20 32 0 22 -198 254 -263 306 -29
24 -57 48 -63 55 -18 22 -196 137 -269 175 -371 192 -807 231 -1220 108 -38
-12 -90 -30 -115 -41 -89 -39 -215 -103 -218 -110 -2 -5 -7 -8 -12 -8 -4 0
-44 -24 -88 -52 -181 -120 -377 -336 -495 -546 -45 -81 -117 -249 -117 -275 0
-7 -6 -21 -12 -30 -12 -15 -41 -17 -253 -18 -236 -1 -240 0 -243 20 -7 43 91
347 138 431 5 8 22 42 39 75 16 33 55 98 86 144 30 46 55 85 55 87 0 21 173
218 290 330 102 98 346 274 379 274 4 0 27 13 49 30 23 17 48 30 56 30 8 0 17
4 21 9 9 15 252 106 345 129 282 70 454 89 665 73 181 -14 241 -24 410 -67
258 -66 483 -172 680 -319 22 -16 42 -32 45 -35 3 -3 23 -17 45 -32 43 -30
204 -184 270 -258 52 -59 119 -150 175 -238 26 -41 54 -73 67 -76 16 -4 63 18
170 80 81 47 217 125 300 172 84 48 153 93 153 101 0 32 -149 251 -273 401
-119 143 -304 321 -442 426 -88 67 -241 174 -248 174 -3 0 -34 18 -68 40 -35
22 -71 43 -79 46 -14 6 -67 30 -220 102 -151 70 -401 143 -625 182 -218 37
-581 51 -745 28z"/>
</g>
</svg>
